<?xml version="1.0" encoding="utf-8"?>
<!-- Generator: Adobe Illustrator 15.1.0, SVG Export Plug-In . SVG Version: 6.00 Build 0)  -->
<!DOCTYPE svg PUBLIC "-//W3C//DTD SVG 1.1//EN" "http://www.w3.org/Graphics/SVG/1.1/DTD/svg11.dtd">
<svg version="1.1" id="Layer_2" xmlns="http://www.w3.org/2000/svg" xmlns:xlink="http://www.w3.org/1999/xlink" x="0px" y="0px"
	 width="233.151px" height="130.916px" viewBox="0 0 233.151 130.916" enable-background="new 0 0 233.151 130.916"
	 xml:space="preserve">
<circle cx="155.875" cy="8.625" r="6.625"/>
<circle cx="224.451" cy="8.701" r="8.701"/>
<ellipse cx="29.875" cy="27.75" rx="3.375" ry="3.25"/>
<ellipse cx="91.875" cy="9.75" rx="3.375" ry="3.25"/>
<ellipse cx="124.125" cy="67.625" rx="5.125" ry="5.375"/>
<ellipse cx="189.855" cy="67.729" rx="5.313" ry="5.479"/>
<ellipse cx="159.188" cy="127.333" rx="3.313" ry="3.583"/>
<ellipse cx="91.25" cy="128.083" rx="2.75" ry="2.833"/>
<ellipse cx="47.674" cy="64.271" rx="1.492" ry="1.646"/>
<ellipse cx="75.674" cy="62.271" rx="1.492" ry="1.646"/>
<circle cx="93.625" cy="97.625" r="1.375"/>
<ellipse cx="45" cy="6.375" rx="1.5" ry="1.375"/>
<ellipse cx="62.078" cy="32.375" rx="1.422" ry="1.375"/>
<circle cx="56.344" cy="127.094" r="0.656"/>
<ellipse cx="63.375" cy="96.396" rx="1.375" ry="1.396"/>
<ellipse cx="25.688" cy="60.933" rx="0.688" ry="0.682"/>
<ellipse cx="35.688" cy="88.933" rx="0.688" ry="0.682"/>
<ellipse cx="45.688" cy="111.933" rx="0.688" ry="0.682"/>
<ellipse cx="25.688" cy="107.933" rx="0.688" ry="0.682"/>
<ellipse cx="15.688" cy="79.933" rx="0.688" ry="0.682"/>
<ellipse cx="14.688" cy="40.933" rx="0.688" ry="0.682"/>
<ellipse cx="3.688" cy="56.933" rx="0.688" ry="0.682"/>
</svg>
