<?xml version="1.0" encoding="utf-8"?>
<!-- Generator: Adobe Illustrator 15.1.0, SVG Export Plug-In . SVG Version: 6.00 Build 0)  -->
<!DOCTYPE svg PUBLIC "-//W3C//DTD SVG 1.1//EN" "http://www.w3.org/Graphics/SVG/1.1/DTD/svg11.dtd">
<svg version="1.1" xmlns="http://www.w3.org/2000/svg" xmlns:xlink="http://www.w3.org/1999/xlink" x="0px" y="0px" width="1600px"
	 height="374px" viewBox="0 0 1600 374" enable-background="new 0 0 1600 374" xml:space="preserve">
<g id="Layer_1" display="none">
	<image display="inline" overflow="visible" width="1600" height="374" xlink:href="header_bg.png" >
	</image>
</g>
<g id="Layer_2">
	<g>
		<path d="M658.688,347.478c0-1.733,0.011-2.814,0.032-3.244s0.115-0.716,0.279-0.859s0.494-0.122,0.988,0.064
			s0.559,0.608,0.193,1.268s-0.577,1.59-0.634,2.793s0.003,2.238,0.183,3.104s0.165,1.36-0.043,1.482s-0.566,0.133-1.074,0.032
			s-0.616-0.522-0.322-1.268S658.716,348.981,658.688,347.478z"/>
		<path d="M666.529,347.091c0.373-1.562,0.82-2.578,1.343-3.051s1.06-0.498,1.611-0.075s0.426,0.941-0.376,1.558
			s-1.396,1.45-1.783,2.503s-0.379,1.98,0.021,2.782s0.938,1.042,1.611,0.72s1.286-1.01,1.837-2.063s0.899-1.106,1.042-0.161
			s-0.165,1.637-0.924,2.073s-1.565,0.681-2.417,0.73s-1.411-0.176-1.676-0.677s-0.426-1.128-0.483-1.88
			S666.343,347.979,666.529,347.091z"/>
		<path d="M672.309,347.198c0.043-1.274,0.559-2.331,1.547-3.169s2.016-0.87,3.083-0.097s1.744,1.83,2.03,3.169
			s0.193,2.299-0.279,2.879s-1.217,1.113-2.234,1.601s-1.966,0.275-2.847-0.634S672.294,348.788,672.309,347.198z M673.211,347.241
			c0,0.931,0.383,1.79,1.149,2.578s1.525,1.135,2.277,1.042s1.185-0.612,1.3-1.558s-0.086-1.887-0.602-2.825
			s-1.131-1.604-1.848-1.998s-1.268-0.301-1.654,0.279S673.24,346.167,673.211,347.241z"/>
		<path d="M680.344,345.974c-0.544-1.317-0.745-2.077-0.602-2.277s0.577-0.354,1.3-0.462s0.992,0.423,0.806,1.59
			s-0.043,2.428,0.43,3.781s0.852,2.088,1.139,2.202s0.583-0.598,0.892-2.138s0.487-2.722,0.538-3.545
			c0.05-0.823,0.239-1.411,0.568-1.762c0.33-0.351,0.663-0.301,1,0.15c0.336,0.451,0.254,1.357-0.248,2.718
			c-0.501,1.36-1.034,2.61-1.6,3.749c-0.566,1.139-0.921,1.769-1.064,1.891s-0.416-0.133-0.816-0.763s-0.816-1.476-1.246-2.535
			S680.645,346.646,680.344,345.974z"/>
		<path d="M687.197,347.821c-0.028-1.776,0.251-3.072,0.838-3.889s1.697-0.956,3.33-0.419s2.166,1.11,1.601,1.719
			s-1.113,0.412-1.644-0.591s-1.289-0.984-2.277,0.054s-1.038,1.683-0.15,1.934s1.396,0.49,1.525,0.72s-0.312,0.38-1.321,0.451
			s-1.285,0.458-0.827,1.16s1.053,1.264,1.783,1.687s1.493,0.208,2.288-0.645s1.188-0.827,1.182,0.075s-0.354,1.422-1.042,1.558
			s-1.647,0.146-2.879,0.032s-1.948-0.494-2.148-1.139S687.168,348.981,687.197,347.821z"/>
		<path d="M699.529,347.177c0.043-1.132,0.154-2.041,0.333-2.729s0.608-1.081,1.289-1.182s1.468,0.101,2.363,0.602
			s1.246,1.074,1.053,1.719s-0.777,1.139-1.751,1.482s-0.602,0.322,1.117-0.064s2.381,0.025,1.987,1.235s-1.035,2.267-1.923,3.169
			s-1.769,1.207-2.643,0.913s-1.454-0.634-1.74-1.021S699.299,349.54,699.529,347.177z M700.453,345.802
			c-0.114,1.289,0.358,1.633,1.418,1.031s1.607-1.178,1.644-1.729s-0.208-0.896-0.73-1.031s-1.017-0.082-1.482,0.161
			S700.553,345,700.453,345.802z M700.689,349.819c-0.172,1.218,0.129,1.708,0.902,1.472s1.637-0.691,2.589-1.364
			s1.128-1.221,0.526-1.644s-1.457-0.455-2.567-0.097S700.545,349.089,700.689,349.819z"/>
		<path d="M706.726,347.091c0.372-1.562,0.82-2.578,1.343-3.051s1.06-0.498,1.611-0.075s0.426,0.941-0.376,1.558
			s-1.396,1.45-1.783,2.503s-0.38,1.98,0.021,2.782s0.938,1.042,1.611,0.72s1.285-1.01,1.837-2.063s0.898-1.106,1.042-0.161
			s-0.165,1.637-0.924,2.073s-1.564,0.681-2.417,0.73s-1.411-0.176-1.676-0.677s-0.426-1.128-0.483-1.88
			S706.54,347.979,706.726,347.091z"/>
		<path d="M713.15,347.478c0-1.733,0.011-2.814,0.032-3.244s0.114-0.716,0.279-0.859s0.494-0.122,0.988,0.064
			s0.559,0.608,0.193,1.268s-0.576,1.59-0.634,2.793s0.004,2.238,0.183,3.104s0.165,1.36-0.043,1.482s-0.565,0.133-1.074,0.032
			s-0.616-0.522-0.322-1.268S713.178,348.981,713.15,347.478z"/>
		<path d="M715.578,347.198c-0.028-1.819,0.412-3.001,1.321-3.545s1.479-0.14,1.708,1.214s0.412,2.46,0.548,3.319
			s0.326,0.469,0.569-1.171s0.799-2.689,1.665-3.147s1.443,0.522,1.729,2.943s0.036,3.949-0.752,4.587s-1.347,0.906-1.676,0.806
			s-0.318-0.544,0.032-1.332s0.773-1.833,1.268-3.137s0.376-2.145-0.354-2.524s-1.089,0.361-1.074,2.224s-0.24,2.954-0.763,3.276
			s-0.935-0.079-1.235-1.203s-0.555-2.417-0.763-3.878s-0.505-1.873-0.892-1.235s-0.573,1.443-0.559,2.417s0.351,2.148,1.01,3.523
			s0.691,2.002,0.097,1.88s-1.031-0.53-1.311-1.225S715.678,349.031,715.578,347.198z"/>
		<path d="M723.828,347.069c-0.058-0.845,0.011-1.68,0.204-2.503s0.767-1.339,1.719-1.547s1.865,0.021,2.739,0.688
			s1.182,1.515,0.924,2.546s-0.945,1.633-2.063,1.805s-1.822,0.479-2.116,0.924s0,1.027,0.881,1.751s0.949,1.261,0.204,1.611
			s-1.336-0.154-1.772-1.515S723.871,348.215,723.828,347.069z M725.267,345.501c-0.286,1.719,0.197,2.424,1.45,2.116
			s1.751-1.035,1.493-2.181s-0.748-1.79-1.472-1.934S725.525,344.025,725.267,345.501z"/>
	</g>
</g>
</svg>
