<?xml version="1.0" encoding="utf-8"?>
<!-- Generator: Adobe Illustrator 22.1.0, SVG Export Plug-In . SVG Version: 6.00 Build 0)  -->
<svg version="1.1" id="Layer_1" xmlns="http://www.w3.org/2000/svg" xmlns:xlink="http://www.w3.org/1999/xlink" x="0px" y="0px"
	 viewBox="0 0 63.2 66.1" enable-background="new 0 0 63.2 66.1" xml:space="preserve">
<g>
	<path fill="#B28F59" stroke="#B28F59" stroke-width="2" stroke-miterlimit="10" d="M10,10.4C15.6,4.7,23.3,1,31.9,1
		c14.5,0,25.9,9,29.5,23.3h-9C49,14.8,41.3,10,31.9,10c-6.1,0-11.6,2.6-15.6,6.8c-4,4.2-6.5,9.8-6.5,16.3c0,6.3,2.5,11.9,6.5,16.1
		c4,4.2,9.5,6.8,15.6,6.8c9.6,0,17.7-5.5,21-15.1h9c-3.6,14.4-15.2,24.2-29.9,24.2c-8.6,0-16.4-3.6-21.9-9.4c-5.4-5.8-9-13.8-9-22.5
		C1,24.2,4.6,16.2,10,10.4z"/>
</g>
</svg>
