<?xml version="1.0" encoding="utf-8"?>
<!-- Generator: Adobe Illustrator 22.1.0, SVG Export Plug-In . SVG Version: 6.00 Build 0)  -->
<svg version="1.1" id="Layer_1" xmlns="http://www.w3.org/2000/svg" xmlns:xlink="http://www.w3.org/1999/xlink" x="0px" y="0px"
	 viewBox="0 0 1111.5 1489.5" enable-background="new 0 0 1111.5 1489.5" xml:space="preserve">
<g>
	<path d="M151.1,1271.1c0.6-1.5,1.1-3,1.7-4.5c29-70.1,58-140.2,86.9-210.3c8.4-20.3,15.9-40.9,24.7-61.1
		c4.8-11.1,10.7-21.8,17.2-32c4.2-6.6,10.3-12,15.6-17.9c1-1.1,2-2.2,2.9-3.4c14.2-18.7,28.3-37.5,42.7-56.1
		c5.4-6.9,11.9-13,17.1-20c10.1-13.6,20.6-27.1,29-41.7c14.3-24.8,27.1-50.4,40.4-75.8c1.7-3.3,2.4-7.2,3.5-10.9
		c7.7-27.3,20.6-52.3,35.3-76.3c10.1-16.4,21.4-32.1,31.9-48.3c24-37,56.6-66.4,88.2-96.3c33.3-31.5,65.6-64,96.9-97.5
		c17.4-18.6,33.3-38.6,50.6-57.3c16.1-17.4,33.1-33.9,49.7-50.6c2.6-2.6,5.6-4.7,8.5-6.9c4.9-3.8,10.4-6.9,14.5-11.4
		c8.6-9.3,19-16,29.5-22.8c29-18.8,55.7-40.6,82.2-62.7c22.2-18.4,44.3-36.9,66.5-55.4c1-0.8,2-1.5,3.7-1.7c-0.7,1-1.2,2.1-2,3
		c-35,44.6-69.7,89.3-105.1,133.6c-12.5,15.6-26.4,30-39.6,45.1c-1.8,2-3.4,4.1-4.8,6.3c-19.2,29.4-39.7,58.1-57.2,88.5
		c-27.1,47.2-64.5,85.9-100.1,126.1C659.2,578,635.6,602,613,627c-13.7,15.2-23.8,32.8-29.7,52.6c-0.8,2.8-2.2,5.5-3.6,8.2
		c-28,51.7-63.2,98.6-98.4,145.5c-30.5,40.6-59.6,82.2-88.6,124c-21.3,30.7-47.4,57.2-72.7,84.3c-7.3,7.8-14.5,15.7-22.2,23
		c-18.6,17.7-33.7,38-47.7,59.4c-31.4,48.1-63.6,95.7-95.5,143.5c-0.9,1.4-1.9,2.7-2.8,4C151.5,1271.3,151.3,1271.2,151.1,1271.1z"
		/>
	<path d="M1111.5,352.6c-4.9,6.6-9.8,13.3-14.8,19.9c-42.6,57.4-85.3,114.7-127.9,172.1c-1,1.3-2.1,2.7-2.7,4.2
		c-16.7,37.3-39.9,70.7-62.7,104.3c-39.5,58-83.2,112.9-127.9,167c-2.4,2.9-4.7,6-6.8,9.2c-19.7,30.1-39.7,60-58.9,90.4
		c-23,36.7-50.3,70.1-78.5,102.7c-52.3,60.2-100.3,123.7-148.9,186.7c-22,28.6-41.1,59.4-61.1,89.5
		c-41.1,61.9-81.9,123.9-122.8,185.9c-1.2,1.8-2.4,3.6-4.4,5c0.5-1.4,1-2.8,1.5-4.2c43.6-112.8,87.2-225.6,130.9-338.4
		c1.1-2.8,2.9-5.6,5-7.8c20.3-21.2,40.7-42.3,61-63.4c16.7-17.4,29.6-37.7,42.5-57.9c36-56.5,68.7-114.8,101.1-173.4
		c1.6-2.8,3.8-5.5,6.2-7.6c25.9-22,52-43.8,77.8-65.9c24.1-20.6,44.1-45,62.2-70.8c15.8-22.4,30.5-45.6,45.1-68.9
		c14.2-22.6,31.6-42.6,51-60.6c24.8-23,50.3-45.2,75.8-67.4c53.3-46.5,102.5-97.2,152.5-147.2c1.3-1.3,2.8-2.6,4.1-3.9
		C1111.1,352.3,1111.3,352.5,1111.5,352.6z"/>
	<path d="M58.3,1017.3c4.8-16.9,9-34,14.4-50.8c7.5-23.3,15.6-46.3,23.8-69.4c1.6-4.5,4.5-8.5,6.6-12.8
		c9.2-18.5,17.9-37.2,27.5-55.4c20.1-38.1,40.5-76.1,60.9-114.1c14.1-26.2,28.2-52.5,42.6-78.6c12.5-22.6,28.6-42.7,46.1-61.4
		c14.6-15.6,26.1-33.1,36.1-51.8c9.1-17.2,18.6-34.2,28.1-51.2c1.2-2.2,3.2-4.4,5.3-5.6c20.7-11.5,38-27,52.5-45.6
		c16.7-21.4,33.7-42.5,49.8-64.4c13.2-17.9,27.6-34.5,43.3-50.3c13.4-13.5,28-24.7,44.3-34.4c85.8-50.8,171.4-102.1,257-153.1
		c1.6-1,3.3-1.9,5.5-2.1c-0.7,0.8-1.3,1.6-2.1,2.3c-14.9,13.6-29.6,27.5-44.9,40.6c-10.9,9.3-23,17.1-33.9,26.3
		c-42.1,35.8-80.4,75.5-118.3,115.6C538.6,369.2,476.7,439.5,416,510.8c-4.2,4.9-8,10.2-11.6,15.7c-25.8,39.4-55.4,75.8-87,110.7
		c-4.7,5.2-8.8,10.8-12.7,16.7c-36.1,55.2-72,110.5-108.1,165.7c-5.5,8.4-11.8,16.2-17.4,24.4c-38.8,56.5-77.5,113.1-116.2,169.8
		c-1,1.4-2,2.8-3,4.3C59.4,1017.8,58.8,1017.6,58.3,1017.3z"/>
</g>
<polygon fill="#841010" points="0,837.9 0,1189.9 990.3,0 646.1,0 "/>
<polygon fill="#841010" points="1.2,1127.7 1.2,1479.7 1111.5,144.1 887.3,-0.2 "/>
<polygon fill="#841010" points="114.8,1489.5 404,1489.5 1108.9,532.5 1108.9,170.3 "/>
</svg>
