<?xml version="1.0" encoding="UTF-8"?>
<svg width="1058px" height="1385px" viewBox="0 0 1058 1385" version="1.1" xmlns="http://www.w3.org/2000/svg" xmlns:xlink="http://www.w3.org/1999/xlink">
    <!-- Generator: Sketch 52.2 (67145) - http://www.bohemiancoding.com/sketch -->
    <title>claw-icon</title>
    <desc>Created with Sketch.</desc>
    <g id="Page-1" stroke="none" stroke-width="1" fill="none" fill-rule="evenodd">
        <g id="claw-icon">
            <path d="M1057.1,1385 L0.9,1385 C0.4,1385 0,1384.6 0,1384.1 C1.11022302e-16,923 1.11022302e-16,462 1.11022302e-16,0.9 C1.11022302e-16,0.4 0.4,0 0.9,0 C353,0 705,0 1057.1,0 C1057.6,0 1058,0.4 1058,0.9 L1058,1384 C1058,1384.6 1057.6,1385 1057.1,1385 Z M93,1161.2 C93.2,1161.3 93.4,1161.4 93.6,1161.5 C94.5,1160.2 95.5,1158.9 96.4,1157.5 C128.3,1109.7 160.4,1062.1 191.9,1014 C205.9,992.6 221,972.3 239.6,954.6 C247.3,947.3 254.5,939.3 261.8,931.6 C287.2,904.5 313.2,878 334.5,847.3 C363.5,805.6 392.6,763.9 423.1,723.3 C458.3,676.4 493.5,629.6 521.5,577.8 C522.9,575.2 524.3,572.5 525.1,569.6 C531,549.8 541.1,532.2 554.8,517 C577.4,492 601,468 623.3,442.8 C658.9,402.6 696.3,363.9 723.4,316.7 C740.8,286.5 761.1,258 780.1,228.8 C781.4,226.8 783.8,223.6 785.4,221.7 C798.6,206.7 812.5,192.3 824.9,176.7 C860.2,132.4 895,87.7 930,43.1 C930.2,42.9 930.4,42.6 930.5,42.4 C931.1,41.6 930.1,40.6 929.2,41.1 C928.9,41.3 928.6,41.6 928.3,41.8 C906.2,60.2 884,78.7 861.9,97.2 C835.4,119.3 808.7,141.1 779.7,159.9 C769.2,166.7 758.8,173.3 750.2,182.7 C746.1,187.2 740.5,190.3 735.7,194.1 C732.8,196.3 729.7,198.4 727.2,201 C710.5,217.8 693.5,234.3 677.5,251.6 C660.2,270.3 644.3,290.3 626.9,308.9 C595.6,342.4 563.4,374.9 530,406.4 C498.3,436.3 465.8,465.7 441.8,502.7 C431.3,518.9 420,534.6 409.9,551 C395.1,575 382.2,600 374.6,627.3 C373.6,631 372.9,634.9 371.1,638.2 C357.8,663.6 345,689.2 330.7,714 C322.3,728.6 311.8,742.1 301.7,755.7 C296.5,762.7 290,768.8 284.6,775.7 C270.2,794.3 256.1,813.1 241.9,831.8 C241,833 240,834.1 239,835.2 C233.7,841.1 227.6,846.5 223.4,853.1 C216.9,863.3 211,874 206.2,885.1 C197.5,905.2 189.9,925.9 181.5,946.2 C152.6,1016.3 123.5,1086.4 94.6,1156.5 C94,1158.2 93.5,1159.7 93,1161.2 Z M1053.4,242.7 C1053.2,242.5 1053,242.4 1052.9,242.2 C1051.5,243.5 1050.1,244.8 1048.8,246.1 C998.8,296 949.6,346.8 896.3,393.3 C870.8,415.5 845.3,437.7 820.5,460.7 C801,478.7 783.7,498.7 769.5,521.3 C754.9,544.5 740.2,567.7 724.4,590.2 C706.3,616 686.3,640.4 662.2,661 C636.4,683 610.3,704.8 584.4,726.8 C581.8,729 579.7,731.6 578,734.6 C545.7,793.2 513,851.5 477,907.9 C464.1,928.1 451.2,948.4 434.5,965.8 C414.2,986.9 393.8,1008 373.6,1029.2 C371.4,1031.5 369.6,1034.3 368.5,1037.3 C324.8,1150 281.2,1262.8 237.6,1375.5 C237.1,1376.9 236.6,1378.3 236.1,1379.7 C238.1,1378.2 239.3,1376.4 240.5,1374.7 C281.4,1312.7 322.2,1250.6 363.3,1188.8 C383.3,1158.7 402.4,1127.9 424.4,1099.3 C473,1036.3 521.1,972.7 573.3,912.6 C601.6,880 628.8,846.6 651.8,809.9 C670.9,779.5 690.9,749.6 710.6,719.5 C712.7,716.2 715.1,713.1 717.6,710 C762.2,656 805.8,601.1 845.3,543.2 C868.2,509.6 891.3,476.2 908,438.9 C908.7,437.4 909.7,436.1 910.7,434.7 C953.3,377.3 996,320 1038.6,262.6 C1043.5,256 1048.5,249.4 1053.4,242.7 Z M1.6,902.4 C3.5,903.3 3,903.1 4.9,903.9 C4.9,903.9 4.9,903.8 5,903.8 C43.6,847.2 82.3,790.6 121.1,734 C126.7,725.8 133.1,718 138.5,709.6 C174.6,654.4 210.5,599.1 246.6,543.9 C250.4,538.1 254.6,532.4 259.3,527.2 C291.2,492 321.1,455.2 347.1,415.3 C350.4,410.3 354,405.5 357.9,400.9 C418.6,329.6 480.5,259.3 544.8,191.2 C582.7,151.1 621,111.4 663.1,75.6 C674,66.3 686.1,58.6 697,49.3 C712.3,36.2 727,22.3 741.9,8.8 C742.7,8.1 743.3,7.2 744,6.5 C741.8,6.7 740.1,7.6 738.5,8.6 C652.9,59.7 567.4,110.9 481.6,161.7 C464.7,171.7 449.2,183.8 435.5,197.9 C420.5,213.2 406.6,229.2 393.9,246.5 C377.8,268.4 360.8,289.5 344.1,310.9 C329.6,329.5 312.4,345 291.6,356.5 C289.4,357.7 287.5,359.9 286.3,362.1 C276.8,379.1 267.4,396.1 258.2,413.3 C248.2,432 236.8,449.5 222.1,465.1 C204.6,483.8 188.5,503.9 176,526.5 C161.6,552.6 147.5,578.8 133.4,605.1 C113,643.1 92.6,681 72.5,719.2 C62.9,737.5 54.1,756.2 45,774.6 C42.9,778.9 40,782.9 38.4,787.4 C30.3,810.5 22.1,833.5 14.6,856.8 C9.7,871.8 5.8,887.1 1.6,902.4 Z" id="Shape" fill="#FFFFFF" fill-rule="nonzero"></path>
            <path d="M93,1161.2 C93.6,1159.7 94.1,1158.2 94.7,1156.7 C123.7,1086.6 152.7,1016.5 181.6,946.4 C190,926.1 197.5,905.5 206.3,885.3 C211.1,874.2 217,863.5 223.5,853.3 C227.7,846.7 233.8,841.3 239.1,835.4 C240.1,834.3 241.1,833.2 242,832 C256.2,813.3 270.3,794.5 284.7,775.9 C290.1,769 296.6,762.9 301.8,755.9 C311.9,742.3 322.4,728.8 330.8,714.2 C345.1,689.4 357.9,663.8 371.2,638.4 C372.9,635.1 373.6,631.2 374.7,627.5 C382.4,600.2 395.3,575.2 410,551.2 C420.1,534.8 431.4,519.1 441.9,502.9 C465.9,465.9 498.5,436.5 530.1,406.6 C563.4,375.1 595.7,342.6 627,309.1 C644.4,290.5 660.3,270.5 677.6,251.8 C693.7,234.4 710.7,217.9 727.3,201.2 C729.9,198.6 732.9,196.5 735.8,194.3 C740.7,190.5 746.2,187.4 750.3,182.9 C758.9,173.6 769.3,166.9 779.8,160.1 C808.8,141.3 835.5,119.5 862,97.4 C884.2,79 906.3,60.5 928.5,42 C929.5,41.2 930.5,40.5 932.2,40.3 C931.5,41.3 931,42.4 930.2,43.3 C895.2,87.9 860.5,132.6 825.1,176.9 C812.6,192.5 798.7,206.9 785.5,222 C783.7,224 782.1,226.1 780.7,228.3 C761.5,257.7 741,286.4 723.5,316.8 C696.4,364 659,402.7 623.4,442.9 C601.1,468.1 577.5,492.1 554.9,517.1 C541.2,532.3 531.1,549.9 525.2,569.7 C524.4,572.5 523,575.2 521.6,577.9 C493.6,629.6 458.4,676.5 423.2,723.4 C392.7,764 363.6,805.6 334.6,847.4 C313.3,878.1 287.2,904.6 261.9,931.7 C254.6,939.5 247.4,947.4 239.7,954.7 C221.1,972.4 206,992.7 192,1014.1 C160.6,1062.2 128.4,1109.8 96.5,1157.6 C95.6,1159 94.6,1160.3 93.7,1161.6 C93.4,1161.4 93.2,1161.3 93,1161.2 Z" id="Path" fill="#000000"></path>
            <path d="M1053.4,242.7 C1048.5,249.3 1043.6,256 1038.6,262.6 C996,320 953.3,377.3 910.7,434.7 C909.7,436 908.6,437.4 908,438.9 C891.3,476.2 868.1,509.6 845.3,543.2 C805.8,601.2 762.1,656.1 717.4,710.2 C715,713.1 712.7,716.2 710.6,719.4 C690.9,749.5 670.9,779.4 651.7,809.8 C628.7,846.5 601.4,879.9 573.2,912.5 C520.9,972.7 472.9,1036.2 424.3,1099.2 C402.3,1127.8 383.2,1158.6 363.2,1188.7 C322.1,1250.6 281.3,1312.6 240.4,1374.6 C239.2,1376.4 238,1378.2 236,1379.6 C236.5,1378.2 237,1376.8 237.5,1375.4 C281.1,1262.6 324.7,1149.8 368.4,1037 C369.5,1034.2 371.3,1031.4 373.4,1029.2 C393.7,1008 414.1,986.9 434.4,965.8 C451.1,948.4 464,928.1 476.9,907.9 C512.9,851.4 545.6,793.1 578,734.5 C579.6,731.7 581.8,729 584.2,726.9 C610.1,704.9 636.2,683.1 662,661 C686.1,640.4 706.1,616 724.2,590.2 C740,567.8 754.7,544.6 769.3,521.3 C783.5,498.7 800.9,478.7 820.3,460.7 C845.1,437.7 870.6,415.5 896.1,393.3 C949.4,346.8 998.6,296.1 1048.6,246.1 C1049.9,244.8 1051.4,243.5 1052.7,242.2 C1053,242.4 1053.2,242.6 1053.4,242.7 Z" id="Path" fill="#000000"></path>
            <path d="M0.2,907.4 C5,890.5 9.2,873.4 14.6,856.6 C22.1,833.3 30.2,810.3 38.4,787.2 C40,782.7 42.9,778.7 45,774.4 C54.2,755.9 62.9,737.2 72.5,719 C92.6,680.9 113,642.9 133.4,604.9 C147.5,578.7 161.6,552.4 176,526.3 C188.5,503.7 204.6,483.6 222.1,464.9 C236.7,449.3 248.2,431.8 258.2,413.1 C267.3,395.9 276.8,378.9 286.3,361.9 C287.5,359.7 289.5,357.5 291.6,356.3 C312.3,344.8 329.6,329.3 344.1,310.7 C360.8,289.3 377.8,268.2 393.9,246.3 C407.1,228.4 421.5,211.8 437.2,196 C450.6,182.5 465.2,171.3 481.5,161.6 C567.3,110.8 652.9,59.5 738.5,8.5 C740.1,7.5 741.8,6.6 744,6.4 C743.3,7.2 742.7,8 741.9,8.7 C727,22.3 712.3,36.2 697,49.3 C686.1,58.6 674,66.4 663.1,75.6 C621,111.4 582.7,151.1 544.8,191.2 C480.5,259.3 418.6,329.6 357.9,400.9 C353.7,405.8 349.9,411.1 346.3,416.6 C320.5,456 290.9,492.4 259.3,527.3 C254.6,532.5 250.5,538.1 246.6,544 C210.5,599.2 174.6,654.5 138.5,709.7 C133,718.1 126.7,725.9 121.1,734.1 C82.3,790.6 43.6,847.2 4.9,903.9 C3.9,905.3 2.9,906.7 1.9,908.2 C1.3,907.9 0.7,907.7 0.2,907.4 Z" id="Path" fill="#000000"></path>
        </g>
    </g>
</svg>