<?xml version="1.0" encoding="utf-8"?>
<!-- Generator: Adobe Illustrator 22.1.0, SVG Export Plug-In . SVG Version: 6.00 Build 0)  -->
<svg version="1.1" id="Layer_1" xmlns="http://www.w3.org/2000/svg" xmlns:xlink="http://www.w3.org/1999/xlink" x="0px" y="0px"
	 viewBox="0 0 1995.3 1612.1" enable-background="new 0 0 1995.3 1612.1" xml:space="preserve">
<path id="c-cover" fill="none" stroke="#AD3131" stroke-miterlimit="10" d="M986.7,732.8c19.9,0,39.9,0,59.8,0c3,0.5,6,1,8.9,1.4
	c26.3,3.6,52.9,5.5,78.8,10.9c206.5,43.6,371.5,197,430.6,399.5c0.8,2.8,1.4,5.6,2.1,8.9c-88.9,25.1-176.7,49.8-264.1,74.4
	c-5.5-16.3-9.9-31.8-16-46.5c-6.2-15-13.4-29.8-21.5-43.8C1167.8,970.3,944.5,938,807,1071.1c-115.4,111.7-131.6,296.1-34.6,424.1
	c75.2,99.3,176.4,141.3,299.3,115.2c108.2-22.9,178.9-92.7,218.9-194.7c2.2-5.6,4-11.3,6.1-17c1.7,0.1,2.8,0.1,3.8,0.4
	c41.3,9,82.6,18,123.9,26.9c47.8,10.3,95.6,20.5,143.4,30.8c0,0.6,0,1.1,0,1.7c-0.6,1.5-1.3,3-1.8,4.5
	c-16.3,56.4-72.1,157.7-72.1,157.7l-956.7-2.5c0,0-75.2-150.3-87.2-239.1c-1.9-13.9-3.2-27.9-4.8-41.8c0-21,0-42.1,0-63.1
	c0.5-2.4,1.1-4.8,1.4-7.2c2.5-20.6,3.7-41.4,7.4-61.7c23-125.7,80.8-232.7,174.4-319.7c86-80,187.5-128.9,303.8-146.3
	C950.4,736.5,968.6,734.9,986.7,732.8z"/>
<polygon id="geom9" fill="#FFFFFF" stroke="#000000" points="964.7,786.2 1076.1,762.6 1031.6,890.7 936.9,875.2 "/>
<polygon id="geom8" fill="none" stroke="#000000" points="1227.6,973 1292.2,932.4 1385.3,955 1306.2,985.3 "/>
<polygon id="geom7" fill="#FFFFFF" stroke="#000000" stroke-miterlimit="10" points="761.8,806 903.6,862.2 903.6,991.9 
	761.8,958.5 "/>
<polygon id="geom6" fill="#FFFFFF" stroke="#000000" stroke-miterlimit="10" points="575.6,1521.8 701.4,1429.3 608.7,1457.8 "/>
<polygon id="geom5" fill="#FFFFFF" stroke="#000000" stroke-miterlimit="10" points="807.4,817.4 808.8,957.5 724.2,1008.5 
	714.8,897.5 "/>
<polygon id="geom4" fill="#FFFFFF" stroke="#000000" stroke-miterlimit="10" points="1286.5,1519.6 1286.5,1592.1 1398.2,1555.9 
	1398.2,1446.7 "/>
<polygon id="geom3" fill="#FFFFFF" stroke="#000000" points="1078.3,897.3 1160,846 1277.6,874.6 1177.6,912.9 "/>
<polygon id="geom2" fill="#FFFFFF" stroke="#000000" points="569.6,1176.8 681,1153.2 636.5,1281.3 541.9,1265.8 "/>
<polygon id="geom1" fill="#FFFFFF" stroke="#000000" points="1327.8,1009.6 1341.8,1152.8 1468.6,1176.8 1457.8,1073 "/>
<circle id="dot1" fill="#A88F8F" cx="1401.2" cy="1107.2" r="9.2"/>
<circle id="dot2" cx="679.7" cy="1233" r="9.2"/>
<circle id="dot3" cx="1211" cy="875" r="6.1"/>
<circle id="dot4" cx="732.4" cy="1037.7" r="9.7"/>
<g id="cube1">
	<circle id="cube-dot-1" fill="#280D0D" cx="1285.8" cy="948.6" r="8.2"/>
	<polygon id="cube-face-3" fill="#FFFFFF" stroke="#AD3131" stroke-miterlimit="10" points="1377.6,996.5 1282.3,974.3 
		1280.6,868.9 1377.6,910 	"/>
	<polygon id="cube-face-2" fill="#FFFFFF" stroke="#AD3131" stroke-miterlimit="10" points="1219.6,1012 1282.3,974.3 1280.6,868.9 
		1217.1,932.7 	"/>
	<polygon id="cube-face-1" fill="#FFFFFF" stroke="#AD3131" stroke-miterlimit="10" points="1377.6,996.5 1282.3,974.3 1219.6,1012 
		1296.1,1026.9 	"/>
</g>
<g id="cueb2">
	<circle id="cube-dot-2" fill="#280D0D" cx="653.4" cy="1045" r="8.2"/>
	<polygon id="cube-face-2c" fill="#FFFFFF" stroke="#350707" stroke-miterlimit="10" points="681.7,1080.2 575,1094.9 575,1021.4 
		681.7,984.6 	"/>
	<polygon id="cube-face-2b" fill="#FFFFFF" stroke="#350707" stroke-miterlimit="10" points="731.7,1102.9 681.7,1080.9 
		681.7,984.6 731.7,1039.7 	"/>
	<polygon id="cube-face-2a" fill="#FFFFFF" stroke="#350707" stroke-miterlimit="10" points="731.7,1102.9 653.3,1110.2 575,1094.9 
		681.7,1080.9 	"/>
</g>
</svg>
